<?xml version="1.0" encoding="UTF-8"?>
<svg version="1.1" xmlns="http://www.w3.org/2000/svg" width="360" height="360">
<path d="M0 0 C0.8156543 0.19867676 1.63130859 0.39735352 2.47167969 0.60205078 C50.54561967 12.58910903 91.81564049 41.53395033 117.57421875 84.19140625 C127.60026269 101.34177159 134.30748883 119.73520555 139 139 C139.17934082 139.7125293 139.35868164 140.42505859 139.54345703 141.15917969 C144.94218681 163.68694783 144.64725834 192.56318383 139 215 C138.70198486 216.22348145 138.70198486 216.22348145 138.39794922 217.47167969 C126.41089097 265.54561967 97.46604967 306.81564049 54.80859375 332.57421875 C37.65822841 342.60026269 19.26479445 349.30748883 0 354 C-0.7125293 354.17934082 -1.42505859 354.35868164 -2.15917969 354.54345703 C-24.68694783 359.94218681 -53.56318383 359.64725834 -76 354 C-77.22348145 353.70198486 -77.22348145 353.70198486 -78.47167969 353.39794922 C-126.54561967 341.41089097 -167.81564049 312.46604967 -193.57421875 269.80859375 C-203.60026269 252.65822841 -210.30748883 234.26479445 -215 215 C-215.26901123 213.93120605 -215.26901123 213.93120605 -215.54345703 212.84082031 C-220.94218681 190.31305217 -220.64725834 161.43681617 -215 139 C-214.80132324 138.1843457 -214.60264648 137.36869141 -214.39794922 136.52832031 C-202.41089097 88.45438033 -173.46604967 47.18435951 -130.80859375 21.42578125 C-113.65822841 11.39973731 -95.26479445 4.69251117 -76 0 C-74.93120605 -0.26901123 -74.93120605 -0.26901123 -73.84082031 -0.54345703 C-51.31305217 -5.94218681 -22.43681617 -5.64725834 0 0 Z " fill="#FDFDFD" transform="translate(218,3)"/>
<path d="M0 0 C13.2 0 26.4 0 40 0 C38.81753504 7.09478974 37.64089472 14.03190104 36.01953125 21.01171875 C35.65677828 22.60869608 35.29415138 24.20570205 34.93164062 25.80273438 C34.36736356 28.26992732 33.80116833 30.73665798 33.23266602 33.20288086 C32.67750524 35.6172286 32.12934914 38.03308305 31.58203125 40.44921875 C31.40815384 41.19386887 31.23427643 41.93851898 31.05513 42.70573425 C30.65926923 44.4611132 30.32308741 46.22978093 30 48 C30.33 48.33 30.66 48.66 31 49 C31.71285156 48.44570312 32.42570312 47.89140625 33.16015625 47.3203125 C34.11792969 46.59585938 35.07570313 45.87140625 36.0625 45.125 C37.00222656 44.40570313 37.94195312 43.68640625 38.91015625 42.9453125 C47.44609 37.57123537 58.24558736 37.98287321 68 39 C78.1526536 41.45064052 85.71581453 47.08221803 91.3125 55.8125 C96.1422308 63.85282548 97.53978979 72.38262214 97.4375 81.625 C97.43137695 82.57922852 97.42525391 83.53345703 97.41894531 84.51660156 C97.23068812 93.15615838 95.720793 100.80009283 93 109 C92.53207031 110.41152344 92.53207031 110.41152344 92.0546875 111.8515625 C86.5931608 126.67570639 77.00672186 138.57308841 63 146 C62.21753906 146.43441406 61.43507813 146.86882812 60.62890625 147.31640625 C50.54833432 151.94540488 36.82691296 151.64546107 26.19140625 149.08203125 C20.10910944 146.68785327 14.99312293 143.17572291 10 139 C9.96398682 139.87229248 9.96398682 139.87229248 9.92724609 140.76220703 C9.47875438 144.57556477 9.01217304 147.14407839 6.00097656 149.69042969 C3.2622429 151.23831745 0.49076802 152.57713709 -2.375 153.875 C-4.46088688 154.88544146 -6.54549821 155.89851981 -8.62890625 156.9140625 C-9.6873877 157.41969727 -10.74586914 157.92533203 -11.83642578 158.44628906 C-17.64371031 161.29839268 -23.24634067 164.51883069 -28.87841797 167.69873047 C-29.65717285 168.13330566 -30.43592773 168.56788086 -31.23828125 169.015625 C-31.91930908 169.40008789 -32.60033691 169.78455078 -33.30200195 170.18066406 C-35 171 -35 171 -37 171 C-35.74318275 162.0829321 -34.07513906 153.33801185 -32.0625 144.5625 C-31.55282397 142.31392927 -31.04371059 140.06523093 -30.53515625 137.81640625 C-30.27943848 136.6871875 -30.0237207 135.55796875 -29.76025391 134.39453125 C-28.46373367 128.60557258 -27.23249465 122.80285625 -26 117 C-24.69961064 110.88583406 -23.39748601 104.77204049 -22.09326172 98.65869141 C-21.6970239 96.79947183 -21.30151872 94.94009598 -20.90673828 93.08056641 C-18.96662116 83.94484533 -17.01314571 74.83166476 -14.69116211 65.78393555 C-13.48323186 60.91850684 -12.4717537 56.01148988 -11.44268799 51.10565186 C-9.98985517 44.1952314 -8.51071268 37.29030919 -7.03833008 30.3840332 C-6.63514602 28.49065726 -6.23281308 26.59709989 -5.83129883 24.70336914 C-5.24266894 21.92805911 -4.65092646 19.15342803 -4.05859375 16.37890625 C-3.88146347 15.54025528 -3.70433319 14.70160431 -3.52183533 13.83753967 C-3.3514827 13.04238449 -3.18113007 12.24722931 -3.00561523 11.42797852 C-2.85922104 10.73962418 -2.71282684 10.05126984 -2.56199646 9.34205627 C-1.80855873 6.20219029 -0.88707392 3.10475871 0 0 Z " fill="#010101" transform="translate(150,94)"/>
<path d="M0 0 C4.64547908 2.65455948 8.01737799 5.93551621 9.578125 11.125 C10.65514478 18.52951101 9.52801944 24.76413103 5.578125 31.125 C1.48068796 35.95787446 -3.34108977 39.78218767 -9.83984375 40.328125 C-18.03549645 40.46683844 -23.83867639 39.29027891 -30.421875 34.125 C-29.81789828 30.44551026 -29.12915628 26.78598433 -28.421875 23.125 C-28.22851562 22.08110107 -28.22851562 22.08110107 -28.03125 21.01611328 C-27.603648 18.75487077 -27.1409702 16.50296809 -26.671875 14.25 C-26.53942383 13.52498291 -26.40697266 12.79996582 -26.27050781 12.05297852 C-25.06041043 6.48433741 -23.13175185 4.33197645 -18.421875 1.125 C-13.12248327 -2.25387573 -5.79529553 -2.09378419 0 0 Z " fill="#FBFBFB" transform="translate(196.421875,168.875)"/>
<path d="M0 0 C5.98568702 4.98807252 5.98568702 4.98807252 6.5 9.5 C6.84739609 13.86017541 6.15749744 16.51974509 3.625 20.1875 C-1.19473448 24.55538437 -6.16371817 24.58443796 -12.41796875 24.5390625 C-16.92366512 24.00337865 -18.43812119 22.58809652 -21.375 19.1875 C-23.67986737 16.14926575 -23.80319756 12.99291697 -23.68359375 9.21484375 C-23.15069909 5.7139282 -21.72481974 3.77832689 -19.375 1.1875 C-13.01909568 -2.55126725 -6.54958836 -3.51737153 0 0 Z " fill="#0D0D0D" transform="translate(39.375,176.8125)"/>
<path d="M0 0 C3.95192573 2.08780982 6.64179174 4.21605551 9 8 C10.23535754 14.62975211 9.22240791 19.89204257 5.484375 25.44140625 C2.46209359 28.61480173 -0.58306568 29.32385065 -4.875 29.4375 C-8.44091552 29.36386753 -10.66986745 29.02920481 -13.5 26.8125 C-16.49004216 23.44870257 -17.96814662 21.45271059 -18.02734375 16.89453125 C-17.59525545 10.28025652 -15.31091892 6.4393033 -10.75 1.625 C-7.13726338 -0.50979891 -4.04467088 -0.79307272 0 0 Z " fill="#0C0C0C" transform="translate(230,23)"/>
<path d="M0 0 C3.97521886 2.28485553 6.54218476 4.62655429 8 9 C8.50704484 14.29487804 8.64847741 18.65500981 6.3125 23.5 C2.80949425 27.28703325 0.18753365 29.14097593 -5 29.375 C-8.72321086 29.22074268 -11.04158782 28.36672975 -14 26 C-17.99047063 21.43946214 -18.29144518 17.29325353 -18.21484375 11.4375 C-17.82557763 7.02109898 -15.78868716 4.8842856 -12.9375 1.6875 C-8.6316079 -0.78609759 -4.84405727 -1.01702602 0 0 Z " fill="#080808" transform="translate(188,315)"/>
<path d="M0 0 C4.76257511 1.6589792 8.81826127 4.20630361 13.0625 6.875 C13.76955078 7.30941406 14.47660156 7.74382812 15.20507812 8.19140625 C18.88699198 10.49389886 22.07728795 12.73567225 25 16 C23.9517502 17.77930585 22.88574919 19.54816071 21.8125 21.3125 C21.22082031 22.29863281 20.62914062 23.28476562 20.01953125 24.30078125 C17.44701299 27.73909869 15.04816327 29.558744 10.82421875 30.46875 C4.74543623 30.55765358 0.5691658 29.0757817 -4 25 C-7.02527706 20.65116423 -7.84267855 17.22460702 -7 12 C-4.9035432 7.84359187 -2.51849124 3.91265603 0 0 Z " fill="#0D0D0D" transform="translate(301,240)"/>
<path d="M0 0 C4.79876079 2.3993804 7.6704397 5.16168244 10 10 C10.64585405 14.52097832 10.74327043 18.36976019 8.828125 22.5703125 C6.64124517 25.47680663 4.42342759 26.94594345 1.3125 28.8125 C0.31863281 29.41707031 -0.67523438 30.02164063 -1.69921875 30.64453125 C-2.45847656 31.09183594 -3.21773437 31.53914063 -4 32 C-15.70615034 16.43963554 -15.70615034 16.43963554 -20 8 C-18.37615858 6.85252535 -16.75088944 5.7070709 -15.125 4.5625 C-14.22007813 3.92441406 -13.31515625 3.28632812 -12.3828125 2.62890625 C-8.29749124 -0.16384615 -4.89348183 -0.64820375 0 0 Z " fill="#0D0D0D" transform="translate(97,44)"/>
<path d="M0 0 C14.11451348 0.60730102 14.11451348 0.60730102 19 4 C20.40457737 6.80915474 20.24895157 8.88810534 20 12 C18.5 14.375 18.5 14.375 17 16 C17.515625 16.515625 18.03125 17.03125 18.5625 17.5625 C20 20 20 20 20 23.5625 C19 27 19 27 17.0625 28.9375 C10.90790543 31.0727675 4.29803695 30.32590251 -2 29 C-2.38767027 19.22209426 -1.1929947 9.68243016 0 0 Z " fill="#0F0F0F" transform="translate(187,16)"/>
<path d="M0 0 C0.84415762 3.53917574 1.67337694 7.08169141 2.5 10.625 C2.73847656 11.62402344 2.97695312 12.62304688 3.22265625 13.65234375 C4.34893117 18.51141554 5.34312331 22.97324344 5 28 C-0.75653756 29.49243566 -6.04663195 30.60542726 -12 30 C-14.5 28.375 -14.5 28.375 -16 26 C-16.375 22.875 -16.375 22.875 -16 20 C-15.34 19.34 -14.68 18.68 -14 18 C-14.804375 17.54625 -15.60875 17.0925 -16.4375 16.625 C-19 15 -19 15 -20 13 C-20.51412135 9.14408989 -20.34079389 7.49983104 -18.125 4.25 C-12.63913422 0.30017664 -6.61078539 -0.04613777 0 0 Z " fill="#0E0E0E" transform="translate(221,310)"/>
<path d="M0 0 C2.5625 1.5625 2.5625 1.5625 4 4 C3.75 7.75 3.75 7.75 3 11 C4.4540625 11.7734375 4.4540625 11.7734375 5.9375 12.5625 C9 15 9 15 10.1875 18.4375 C10 22 10 22 8.25 24.6875 C3.24570131 28.24825099 -2.77467554 31 -9 31 C-10.31536809 27.25099982 -11.62679501 23.50063275 -12.9375 19.75 C-13.31068359 18.68652344 -13.68386719 17.62304688 -14.06835938 16.52734375 C-14.42607422 15.50253906 -14.78378906 14.47773437 -15.15234375 13.421875 C-15.48226318 12.47924805 -15.81218262 11.53662109 -16.15209961 10.56542969 C-16.87207539 8.38705205 -17.48294227 6.23368938 -18 4 C-11.85744007 1.18046429 -6.80560577 -0.93870424 0 0 Z " fill="#0E0E0E" transform="translate(133,25)"/>
<path d="M0 0 C3.83097267 0.60679709 6.84967736 1.74808147 10.30078125 3.50390625 C11.27724609 3.99697266 12.25371094 4.49003906 13.25976562 4.99804688 C14.26716797 5.51431641 15.27457031 6.03058594 16.3125 6.5625 C17.33923828 7.08263672 18.36597656 7.60277344 19.42382812 8.13867188 C21.9520146 9.42040362 24.477224 10.70766061 27 12 C27 13.98 27 15.96 27 18 C25.78441406 18.13277344 24.56882812 18.26554687 23.31640625 18.40234375 C21.73174516 18.58050091 20.1471111 18.75889875 18.5625 18.9375 C17.76005859 19.02451172 16.95761719 19.11152344 16.13085938 19.20117188 C12.24423336 19.30548394 12.24423336 19.30548394 9 21 C13.95 23.64 18.9 26.28 24 29 C24 30.65 24 32.3 24 34 C22.43611034 35.56388966 20.76044859 35.32813877 18.58984375 35.53515625 C17.68169922 35.62216797 16.77355469 35.70917969 15.83789062 35.79882812 C14.88076172 35.88583984 13.92363281 35.97285156 12.9375 36.0625 C12.00744141 36.15337891 11.07738281 36.24425781 10.11914062 36.33789062 C4.71914613 36.84259847 -0.57711334 37.09581072 -6 37 C-6.042721 35.33388095 -6.04063832 33.66617115 -6 32 C-4.41596476 30.41596476 -2.7228362 30.78025065 -0.52734375 30.68359375 C0.37177734 30.64169922 1.27089844 30.59980469 2.19726562 30.55664062 C3.14279297 30.51732422 4.08832031 30.47800781 5.0625 30.4375 C6.01189453 30.39431641 6.96128906 30.35113281 7.93945312 30.30664062 C10.29281353 30.20020724 12.64628354 30.09818992 15 30 C14.49025635 29.76289307 13.9805127 29.52578613 13.45532227 29.28149414 C11.15665983 28.21074407 8.85956706 27.13666805 6.5625 26.0625 C5.76005859 25.68931641 4.95761719 25.31613281 4.13085938 24.93164062 C3.36708984 24.57392578 2.60332031 24.21621094 1.81640625 23.84765625 C1.10943604 23.51773682 0.40246582 23.18781738 -0.32592773 22.84790039 C-2 22 -2 22 -3 21 C-3.125 18.5 -3.125 18.5 -3 16 C-1.09582587 14.09582587 2.26526465 14.64690544 4.8125 14.5 C8.75422388 14.27125747 12.15899484 13.96025129 16 13 C10.72 10.36 5.44 7.72 0 5 C0 3.35 0 1.7 0 0 Z " fill="#101010" transform="translate(22,131)"/>
<path d="M0 0 C9.44363607 0.54537716 18.65438032 1.53708385 28 3 C28.1875 5.875 28.1875 5.875 28 9 C24.62137195 11.2524187 21.37670903 12.09147669 17.5 13.0625 C12.2146954 14.40687048 12.2146954 14.40687048 7 16 C12.94 19.3 18.88 22.6 25 26 C25 28.31 25 30.62 25 33 C21.08288672 32.69294194 17.16640839 32.37841166 13.25 32.0625 C12.13882812 31.97548828 11.02765625 31.88847656 9.8828125 31.79882812 C8.81289063 31.71181641 7.74296875 31.62480469 6.640625 31.53515625 C5.65610352 31.456604 4.67158203 31.37805176 3.65722656 31.29711914 C1.3466506 31.03876091 -0.76737883 30.6322672 -3 30 C-3 28.35 -3 26.7 -3 25 C2.61 25.33 8.22 25.66 14 26 C8.72 23.03 3.44 20.06 -2 17 C-1.67 15.35 -1.34 13.7 -1 12 C3.95 10.68 8.9 9.36 14 8 C9.13482528 6.60995008 4.94441643 5.60543875 0 5 C0 3.35 0 1.7 0 0 Z " fill="#0C0C0C" transform="translate(316,181)"/>
<path d="M0 0 C0.76171875 1.72265625 0.76171875 1.72265625 1 4 C-0.73046875 6.18359375 -0.73046875 6.18359375 -3.1875 8.4375 C-6.43517474 11.45432226 -9.29917151 14.47960976 -12 18 C-10.46279297 17.566875 -10.46279297 17.566875 -8.89453125 17.125 C-7.53394621 16.74966619 -6.17326392 16.37468476 -4.8125 16 C-4.13896484 15.80921875 -3.46542969 15.6184375 -2.77148438 15.421875 C0.90555156 14.4174164 4.1850182 13.76295259 8 14 C8.73828125 16.20703125 8.73828125 16.20703125 9 19 C7.48046875 21.32421875 7.48046875 21.32421875 5.1875 23.6875 C4.36765625 24.54472656 3.5478125 25.40195312 2.703125 26.28515625 C1.81109375 27.18105469 0.9190625 28.07695312 0 29 C-0.94286141 29.95688044 -1.88556929 30.91391218 -2.828125 31.87109375 C-5.20353076 34.26346669 -7.59362409 36.63883783 -10 39 C-10.99 38.34 -11.98 37.68 -13 37 C-12.42308522 33.83145253 -11.58353113 32.21773541 -9.27734375 29.984375 C-8.73916016 29.45585937 -8.20097656 28.92734375 -7.64648438 28.3828125 C-7.08251953 27.84398437 -6.51855469 27.30515625 -5.9375 26.75 C-5.36966797 26.19570313 -4.80183594 25.64140625 -4.21679688 25.0703125 C-2.81787531 23.70665786 -1.40980886 22.35239583 0 21 C-0.60585938 21.12117188 -1.21171875 21.24234375 -1.8359375 21.3671875 C-7.890625 22.578125 -13.9453125 23.7890625 -20 25 C-20.66 23.35 -21.32 21.7 -22 20 C-21.48050781 19.56429688 -20.96101563 19.12859375 -20.42578125 18.6796875 C-16.16777334 15.04345894 -12.44527348 11.41425664 -9 7 C-13.56980881 7 -17.56814885 8.76876019 -21.87109375 10.22265625 C-24.85857079 10.9648634 -26.19007822 11.09773357 -29 10 C-29.33 8.68 -29.66 7.36 -30 6 C-25.75431174 4.79669806 -21.50287762 3.61511643 -17.25 2.4375 C-15.44015625 1.92413086 -15.44015625 1.92413086 -13.59375 1.40039062 C-12.43359375 1.08134766 -11.2734375 0.76230469 -10.078125 0.43359375 C-9.00981445 0.13509521 -7.94150391 -0.16340332 -6.84082031 -0.47094727 C-4.07873743 -0.98533654 -2.60418934 -0.94772713 0 0 Z " fill="#0C0C0C" transform="translate(60,241)"/>
<path d="M0 0 C0 1.65 0 3.3 0 5 C-2.6226232 6.33819498 -5.24786599 7.6707151 -7.875 9 C-8.62136719 9.3815625 -9.36773437 9.763125 -10.13671875 10.15625 C-10.85214844 10.5171875 -11.56757813 10.878125 -12.3046875 11.25 C-12.96452637 11.58515625 -13.62436523 11.9203125 -14.30419922 12.265625 C-16 13 -16 13 -18 13 C-18 13.66 -18 14.32 -18 15 C-11.07 15 -4.14 15 3 15 C3.33 16.98 3.66 18.96 4 21 C-5.405 25.455 -5.405 25.455 -15 30 C-8.07 30.33 -1.14 30.66 6 31 C6.495 33.97 6.495 33.97 7 37 C-2.9 36.34 -12.8 35.68 -23 35 C-23 33.02 -23 31.04 -23 29 C-20.54429825 27.66161267 -18.08570084 26.32913768 -15.625 25 C-14.92632812 24.6184375 -14.22765625 24.236875 -13.5078125 23.84375 C-8.2265625 21 -8.2265625 21 -6 21 C-6 20.34 -6 19.68 -6 19 C-7.39412109 19.03480469 -7.39412109 19.03480469 -8.81640625 19.0703125 C-21.09490334 19.24956063 -21.09490334 19.24956063 -27 17 C-26.81396484 14.69458008 -26.81396484 14.69458008 -26 12 C-23.82275391 10.33081055 -23.82275391 10.33081055 -20.9765625 8.88671875 C-19.44515625 8.0987793 -19.44515625 8.0987793 -17.8828125 7.29492188 C-16.80773437 6.76447266 -15.73265625 6.23402344 -14.625 5.6875 C-13.55765625 5.13771484 -12.4903125 4.58792969 -11.390625 4.02148438 C-3.45756017 0 -3.45756017 0 0 0 Z " fill="#0B0B0B" transform="translate(337,128)"/>
<path d="M0 0 C4.78392275 0.83928469 6.33163907 2.00013164 9.5625 5.625 C9.9375 8.9375 9.9375 8.9375 9.5625 11.625 C10.26117188 11.61339844 10.95984375 11.60179688 11.6796875 11.58984375 C12.58976562 11.58082031 13.49984375 11.57179688 14.4375 11.5625 C15.79488281 11.54509766 15.79488281 11.54509766 17.1796875 11.52734375 C19.5625 11.625 19.5625 11.625 21.5625 12.625 C21.2325 13.945 20.9025 15.265 20.5625 16.625 C16.2725 16.625 11.9825 16.625 7.5625 16.625 C6.9025 17.945 6.2425 19.265 5.5625 20.625 C7.8725 22.275 10.1825 23.925 12.5625 25.625 C11.5725 28.1 11.5725 28.1 10.5625 30.625 C2.38787811 25.53019558 -5.55323349 20.15276078 -13.4375 14.625 C-6.56045261 1.19280957 -6.56045261 1.19280957 0 0 Z " fill="#0A0A0A" transform="translate(51.4375,83.375)"/>
<path d="M0 0 C2.94694831 2.050051 4.64148557 3.56328662 5.52734375 7.11328125 C5.78047251 9.0654935 5.90003316 11.03398538 6 13 C9.3 12.34 12.6 11.68 16 11 C16.33 12.65 16.66 14.3 17 16 C-5.03045685 23 -5.03045685 23 -11 23 C-15.33622659 9.93969849 -15.33622659 9.93969849 -12.75 4.25 C-9.2331267 -0.27169424 -5.61415212 -0.68945728 0 0 Z " fill="#0F0F0F" transform="translate(34,206)"/>
<path d="M0 0 C3.875 0.875 3.875 0.875 5 2 C5.15714654 3.63256758 5.25085414 5.27135338 5.31640625 6.91015625 C5.35830078 7.89951172 5.40019531 8.88886719 5.44335938 9.90820312 C5.48267578 10.94912109 5.52199219 11.99003906 5.5625 13.0625 C5.60568359 14.10728516 5.64886719 15.15207031 5.69335938 16.22851562 C5.79981105 18.81883972 5.90044308 21.40940175 6 24 C9.3 19.38 12.6 14.76 16 10 C17.32 10.66 18.64 11.32 20 12 C18.69150423 15.5693777 17.12607526 18.52418566 14.9609375 21.64453125 C14.09082031 22.90620117 14.09082031 22.90620117 13.203125 24.19335938 C12.59984375 25.05767578 11.9965625 25.92199219 11.375 26.8125 C10.76398438 27.69615234 10.15296875 28.57980469 9.5234375 29.49023438 C8.01996525 31.66322161 6.51205266 33.83297876 5 36 C1.125 35.125 1.125 35.125 0 34 C-0.15714654 32.36743242 -0.25085414 30.72864662 -0.31640625 29.08984375 C-0.35830078 28.10048828 -0.40019531 27.11113281 -0.44335938 26.09179688 C-0.48267578 25.05087891 -0.52199219 24.00996094 -0.5625 22.9375 C-0.60568359 21.89271484 -0.64886719 20.84792969 -0.69335938 19.77148438 C-0.79981105 17.18116028 -0.90044308 14.59059825 -1 12 C-3.97 16.29 -6.94 20.58 -10 25 C-11.32 24.67 -12.64 24.34 -14 24 C-14 19.67451467 -13.64904579 19.03154729 -11.19140625 15.7421875 C-10.60939453 14.95199219 -10.02738281 14.16179687 -9.42773438 13.34765625 C-8.50444336 12.12369141 -8.50444336 12.12369141 -7.5625 10.875 C-6.35445453 9.24814847 -5.1473753 7.62057886 -3.94140625 5.9921875 C-3.40201416 5.27401855 -2.86262207 4.55584961 -2.30688477 3.81591797 C-0.9490641 2.03103032 -0.9490641 2.03103032 0 0 Z " fill="#0D0D0D" transform="translate(91,284)"/>
<path d="M0 0 C2.57453134 1.70214667 3.43236502 3.30525376 4.84667969 6.03881836 C5.33007812 6.96629883 5.81347656 7.8937793 6.31152344 8.84936523 C6.80265625 9.82067383 7.29378906 10.79198242 7.79980469 11.79272461 C8.30640625 12.76016602 8.81300781 13.72760742 9.33496094 14.72436523 C13.04980469 21.93877203 13.04980469 21.93877203 13.04980469 25.35522461 C8.99680887 26.51188003 7.08022186 26.29035244 3.40527344 24.26538086 C2.56416016 23.81098633 1.72304687 23.3565918 0.85644531 22.88842773 C-0.00787109 22.4030957 -0.8721875 21.91776367 -1.76269531 21.41772461 C-2.64634766 20.93625977 -3.53 20.45479492 -4.44042969 19.95874023 C-6.61765102 18.77009507 -8.7867772 17.56875655 -10.95019531 16.35522461 C-10.37269531 17.41483398 -9.79519531 18.47444336 -9.20019531 19.56616211 C-8.44997743 20.95406519 -7.69998931 22.34209248 -6.95019531 23.73022461 C-6.56863281 24.42889648 -6.18707031 25.12756836 -5.79394531 25.84741211 C-2.95019531 31.12866211 -2.95019531 31.12866211 -2.95019531 33.35522461 C-4.60019531 34.01522461 -6.25019531 34.67522461 -7.95019531 35.35522461 C-9.93298042 31.58628319 -11.91079972 27.81475808 -13.88769531 24.04272461 C-14.45166016 22.97086914 -15.015625 21.89901367 -15.59667969 20.79467773 C-16.13486328 19.76665039 -16.67304688 18.73862305 -17.22753906 17.67944336 C-17.72503662 16.73157959 -18.22253418 15.78371582 -18.73510742 14.80712891 C-19.95019531 12.35522461 -19.95019531 12.35522461 -20.95019531 9.35522461 C-17.89785966 8.31943202 -15.71982801 8.06615836 -12.67382812 9.21020508 C-10.09581912 10.50125157 -7.58325132 11.87061152 -5.07519531 13.29272461 C-4.19605469 13.77418945 -3.31691406 14.2556543 -2.41113281 14.75170898 C-0.2489959 15.93853414 1.90365827 17.13979522 4.04980469 18.35522461 C3.47230469 17.3072168 2.89480469 16.25920898 2.29980469 15.17944336 C1.54947665 13.80071558 0.7994946 12.42179947 0.04980469 11.04272461 C-0.33175781 10.35243164 -0.71332031 9.66213867 -1.10644531 8.95092773 C-3.95019531 3.69506836 -3.95019531 3.69506836 -3.95019531 0.35522461 C-1.95019531 -0.64477539 -1.95019531 -0.64477539 0 0 Z " fill="#0D0D0D" transform="translate(253.9501953125,294.644775390625)"/>
<path d="M0 0 C0.66 0 1.32 0 2 0 C3.34377938 2.7235907 4.10970352 4.36543411 3.58447266 7.40356445 C3.2807373 8.215271 2.97700195 9.02697754 2.6640625 9.86328125 C2.34179688 10.74951172 2.01953125 11.63574219 1.6875 12.54882812 C1.1615625 13.9168457 1.1615625 13.9168457 0.625 15.3125 C0.28210938 16.24384766 -0.06078125 17.17519531 -0.4140625 18.13476562 C-1.2612299 20.42917733 -2.12348243 22.71667489 -3 25 C-2.01257813 24.278125 -1.02515625 23.55625 -0.0078125 22.8125 C1.28627903 21.87475251 2.58055969 20.93726598 3.875 20 C4.52597656 19.52304688 5.17695313 19.04609375 5.84765625 18.5546875 C10.7734375 15 10.7734375 15 13 15 C13.66 16.65 14.32 18.3 15 20 C11.93913885 22.10655835 8.87602503 24.20981798 5.8125 26.3125 C4.94818359 26.90740234 4.08386719 27.50230469 3.19335938 28.11523438 C2.35224609 28.69208984 1.51113281 29.26894531 0.64453125 29.86328125 C-0.12528076 30.39219971 -0.89509277 30.92111816 -1.68823242 31.46606445 C-4.083272 33.05525378 -6.52482669 34.53939889 -9 36 C-11 33 -11 33 -10.8125 30.82421875 C-9.73358778 27.07396138 -8.39741595 23.45435053 -7 19.8125 C-6.59007812 18.72678711 -6.59007812 18.72678711 -6.171875 17.61914062 C-4.16276544 12.32553089 -4.16276544 12.32553089 -3 10 C-4.44632812 11.10021484 -4.44632812 11.10021484 -5.921875 12.22265625 C-7.19742191 13.16993741 -8.47349103 14.11651567 -9.75 15.0625 C-10.70132812 15.79049805 -10.70132812 15.79049805 -11.671875 16.53320312 C-12.6 17.21479492 -12.6 17.21479492 -13.546875 17.91015625 C-14.39523926 18.54642944 -14.39523926 18.54642944 -15.26074219 19.19555664 C-17.52945484 20.24488401 -18.69450903 19.81487181 -21 19 C-21 17.68 -21 16.36 -21 15 C-19.28759766 13.38427734 -19.28759766 13.38427734 -16.9140625 11.8359375 C-16.06585938 11.27132812 -15.21765625 10.70671875 -14.34375 10.125 C-13.4465625 9.5475 -12.549375 8.97 -11.625 8.375 C-9.86614698 7.21772569 -8.10828699 6.05894034 -6.3515625 4.8984375 C-5.56604004 4.38974121 -4.78051758 3.88104492 -3.97119141 3.35693359 C-1.89373093 2.0147311 -1.89373093 2.0147311 0 0 Z " fill="#0C0C0C" transform="translate(305,75)"/>
<path d="M0 0 C1.74923027 1.28514877 3.49284865 2.57821881 5.21875 3.89453125 C6.75796204 5.05974935 8.30239258 6.21849129 9.8671875 7.34912109 C11.95002193 8.85588422 14.00633713 10.39459581 16.0625 11.9375 C16.7541626 12.42702148 17.4458252 12.91654297 18.15844727 13.42089844 C19.11835571 14.15421387 19.11835571 14.15421387 20.09765625 14.90234375 C20.68039307 15.33023193 21.26312988 15.75812012 21.86352539 16.19897461 C23 18 23 18 22 25 C11.77 25 1.54 25 -9 25 C-8.34 23.35 -7.68 21.7 -7 20 C-4.36 20 -1.72 20 1 20 C1.12375 19.113125 1.2475 18.22625 1.375 17.3125 C1.94412736 14.29612498 2.76614436 11.79673946 4 9 C3.38125 8.690625 2.7625 8.38125 2.125 8.0625 C0.75 7.375 -0.625 6.6875 -2 6 C-1.34 4.02 -0.68 2.04 0 0 Z " fill="#090909" transform="translate(312,212)"/>
<path d="M0 0 C0.99 0.66 1.98 1.32 3 2 C1.63629701 4.99220268 0.05091917 7.29026529 -2.125 9.75 C-2.93324219 10.67039062 -2.93324219 10.67039062 -3.7578125 11.609375 C-4.37269531 12.29773438 -4.37269531 12.29773438 -5 13 C-2.525 14.98 -2.525 14.98 0 17 C0.45890625 16.48308594 0.9178125 15.96617188 1.390625 15.43359375 C2.00421875 14.77488281 2.6178125 14.11617187 3.25 13.4375 C4.15492187 12.44556641 4.15492187 12.44556641 5.078125 11.43359375 C7 10 7 10 9.234375 10.28515625 C9.81703125 10.52105469 10.3996875 10.75695312 11 11 C9.44499019 14.81684226 6.96404505 17.19195732 4 20 C4.66 21.32 5.32 22.64 6 24 C9.88670845 24.42486766 9.88670845 24.42486766 11.8515625 22.46875 C12.43679687 21.8190625 13.02203125 21.169375 13.625 20.5 C14.7149779 19.30054834 15.83405104 18.12574382 17 17 C17.66 17 18.32 17 19 17 C19 17.66 19 18.32 19 19 C19.66 19 20.32 19 21 19 C19.41332422 22.90285767 16.86649519 25.33520982 13.875 28.25 C12.96492188 29.14203125 12.05484375 30.0340625 11.1171875 30.953125 C10.41851562 31.62859375 9.71984375 32.3040625 9 33 C4.734555 31.30636743 1.7797093 28.22622172 -1.5 25.125 C-2.06847656 24.59519531 -2.63695313 24.06539062 -3.22265625 23.51953125 C-4.32516891 22.48864354 -5.42179009 21.45141004 -6.51171875 20.40722656 C-7.79768996 19.19129184 -9.12950944 18.02418963 -10.46875 16.8671875 C-12 15 -12 15 -12.09765625 13.109375 C-10.45211323 9.9471215 -7.99076885 7.67895239 -5.4375 5.25 C-4.91736328 4.74339844 -4.39722656 4.23679687 -3.86132812 3.71484375 C-2.58089916 2.46965595 -1.29132446 1.23388498 0 0 Z " fill="#111111" transform="translate(69,59)"/>
<path d="M0 0 C7.5995788 5.36440856 14.24336261 11.63475319 21 18 C20.4940998 22.23567424 18.1064672 24.35934285 15.1875 27.3125 C14.31480469 28.21613281 13.44210937 29.11976563 12.54296875 30.05078125 C10 32 10 32 7.67578125 31.79296875 C6.84626953 31.40044922 6.84626953 31.40044922 6 31 C7.66751148 27.05860922 10.22710649 24.2107188 13 21 C11.63016497 17.83884224 11.0109362 17.0072908 8 15 C7.690625 15.8353125 7.690625 15.8353125 7.375 16.6875 C5.44999226 19.92501302 2.96149098 21.68231141 0 24 C-0.66 22.68 -1.32 21.36 -2 20 C0.97 16.535 0.97 16.535 4 13 C3.34 11.68 2.68 10.36 2 9 C-1.88595704 8.55427485 -1.88595704 8.55427485 -3.703125 10.53125 C-4.21359375 11.1809375 -4.7240625 11.830625 -5.25 12.5 C-5.77078125 13.1496875 -6.2915625 13.799375 -6.828125 14.46875 C-7.21484375 14.9740625 -7.6015625 15.479375 -8 16 C-9.32 15.34 -10.64 14.68 -12 14 C-8.72905967 8.54843278 -4.58146674 4.38130557 0 0 Z " fill="#101010" transform="translate(286,264)"/>
<path d="M0 0 C1.640625 2.80078125 1.640625 2.80078125 3.25 6.3125 C3.79140625 7.46363281 4.3328125 8.61476563 4.890625 9.80078125 C5.96692082 12.90460617 6.25547224 14.04380082 5 17 C4.01 17 3.02 17 2 17 C0.35 13.37 -1.3 9.74 -3 6 C-5.31 6.66 -7.62 7.32 -10 8 C-9.6390625 8.69867188 -9.278125 9.39734375 -8.90625 10.1171875 C-8.4421875 11.02726562 -7.978125 11.93734375 -7.5 12.875 C-7.0359375 13.77992187 -6.571875 14.68484375 -6.09375 15.6171875 C-5 18 -5 18 -5 20 C-6.32 20.33 -7.64 20.66 -9 21 C-10.65 17.7 -12.3 14.4 -14 11 C-16.31 11.66 -18.62 12.32 -21 13 C-20.44119141 14.13888672 -20.44119141 14.13888672 -19.87109375 15.30078125 C-19.39800781 16.29464844 -18.92492187 17.28851563 -18.4375 18.3125 C-17.96183594 19.29863281 -17.48617188 20.28476563 -16.99609375 21.30078125 C-16 24 -16 24 -17 27 C-18.796875 26.8984375 -18.796875 26.8984375 -21 26 C-22.703125 23.1640625 -22.703125 23.1640625 -24.25 19.625 C-24.77078125 18.46226563 -25.2915625 17.29953125 -25.828125 16.1015625 C-27 13 -27 13 -27 10 C-23.06984608 8.12996074 -19.12981764 6.2817409 -15.1875 4.4375 C-14.06794922 3.90447266 -12.94839844 3.37144531 -11.79492188 2.82226562 C-10.72177734 2.32275391 -9.64863281 1.82324219 -8.54296875 1.30859375 C-7.55321045 0.84251709 -6.56345215 0.37644043 -5.54370117 -0.10375977 C-3 -1 -3 -1 0 0 Z " fill="#0E0E0E" transform="translate(326,104)"/>
<path d="M0 0 C1.32 0.33 2.64 0.66 4 1 C3.54554036 2.41791408 3.08625056 3.83428046 2.625 5.25 C2.36976562 6.03890625 2.11453125 6.8278125 1.8515625 7.640625 C1.04826333 9.86627958 0.10288338 11.90931672 -1 14 C-0.236875 14.144375 0.52625 14.28875 1.3125 14.4375 C4 15 4 15 7 16 C7.1546875 14.948125 7.1546875 14.948125 7.3125 13.875 C8.09359003 10.60862353 9.42058743 7.9528148 11 5 C12.32 5.33 13.64 5.66 15 6 C14.79503906 6.60328125 14.59007813 7.2065625 14.37890625 7.828125 C14.10949219 8.62734375 13.84007813 9.4265625 13.5625 10.25 C13.29566406 11.03890625 13.02882813 11.8278125 12.75390625 12.640625 C12.08045292 14.74821988 11.50849405 16.84753973 11 19 C13.31 19.66 15.62 20.32 18 21 C18.18175781 20.38511719 18.36351563 19.77023438 18.55078125 19.13671875 C18.80214844 18.32847656 19.05351563 17.52023438 19.3125 16.6875 C19.67794922 15.48673828 19.67794922 15.48673828 20.05078125 14.26171875 C21.04182023 11.90035427 22.08074943 10.66120007 24 9 C25.485 10.485 25.485 10.485 27 12 C24.69 17.28 22.38 22.56 20 28 C13.60718089 25.97144779 7.53890322 23.58951727 1.4375 20.8125 C0.21063477 20.26045898 0.21063477 20.26045898 -1.04101562 19.69726562 C-3.02909218 18.80204987 -5.01480308 17.9015835 -7 17 C-5.08390483 11.0191669 -2.93174252 5.56020134 0 0 Z " fill="#0D0D0D" transform="translate(33,107)"/>
<path d="M0 0 C3.78671666 1.54950705 6.06455913 3.88289637 8.8125 6.875 C9.62332031 7.73867188 10.43414062 8.60234375 11.26953125 9.4921875 C13 12 13 12 13.046875 14.0546875 C11.60597829 16.73217468 9.75361793 18.2839518 7.4375 20.25 C3.27613197 23.85015053 -0.61479456 27.58071641 -4.40625 31.56640625 C-6 33 -6 33 -8 33 C-9.55078125 31.4609375 -9.55078125 31.4609375 -11.3125 29.375 C-11.92867187 28.65054687 -12.54484375 27.92609375 -13.1796875 27.1796875 C-13.78039063 26.46039063 -14.38109375 25.74109375 -15 25 C-15.51820312 24.38382812 -16.03640625 23.76765625 -16.5703125 23.1328125 C-17.71958835 21.76024877 -18.8607561 20.3809017 -20 19 C-18.68 18.34 -17.36 17.68 -16 17 C-13.36 19.64 -10.72 22.28 -8 25 C-6.35 23.35 -4.7 21.7 -3 20 C-5.31 17.69 -7.62 15.38 -10 13 C-9.34 11.68 -8.68 10.36 -8 9 C-7.34 9 -6.68 9 -6 9 C-4.2734375 10.75 -4.2734375 10.75 -2.375 13 C-1.42753906 14.11375 -1.42753906 14.11375 -0.4609375 15.25 C0.26222656 16.11625 0.26222656 16.11625 1 17 C2.65 15.35 4.3 13.7 6 12 C3.36 9.03 0.72 6.06 -2 3 C-1.34 2.01 -0.68 1.02 0 0 Z " fill="#0D0D0D" transform="translate(75,267)"/>
<path d="M0 0 C4.55532787 1.4340847 4.55532787 1.4340847 6.375 4.0625 C7.56711438 7.63884313 7.63426574 10.30314683 7.375 14.0625 C6.21860194 16.37529611 5.20090172 18.23659828 3.375 20.0625 C-3.72401455 20.76076373 -3.72401455 20.76076373 -7.125 18.125 C-9.16295028 13.96418483 -9.53253935 10.60815762 -8.625 6.0625 C-6.72211606 1.86099961 -4.77723345 0.08236609 0 0 Z " fill="#F8F8F8" transform="translate(183.625,318.9375)"/>
<path d="M0 0 C2.1875 1.1875 2.1875 1.1875 4.1875 4.1875 C4.5625 7.125 4.5625 7.125 4.1875 10.1875 C1.88098553 13.03220117 -0.0818264 14.98009118 -3.80078125 15.42578125 C-7.78429518 15.5529859 -10.26630135 15.46617278 -13.875 13.625 C-15.8125 11.1875 -15.8125 11.1875 -16.5 7.75 C-15.76207469 3.92620523 -14.77000654 2.33981601 -11.59375 0.0625 C-7.66676499 -1.86654527 -4.04718957 -1.1691881 0 0 Z " fill="#F7F7F7" transform="translate(36.8125,180.8125)"/>
<path d="M0 0 C3.4375 0.625 3.4375 0.625 5.875 2.1875 C8.05331326 5.58566869 7.91023387 7.64052885 7.4375 11.625 C6.22533225 15.68740002 5.0755878 18.19960813 1.4375 20.625 C-2.02817407 21.06742648 -3.89464537 21.01165268 -6.9375 19.25 C-9.47376609 15.15295477 -9.40141279 11.30525029 -8.5625 6.625 C-6.72226824 2.48854985 -4.53477487 0.79557454 0 0 Z " fill="#F7F7F7" transform="translate(226.5625,27.375)"/>
<path d="M0 0 C-0.61379513 3.89442426 -1.85556011 6.95968022 -3.5625 10.5 C-6.41485246 17.08991776 -6.51400374 22.91817063 -6 30 C-7.65 30.33 -9.3 30.66 -11 31 C-11.01675781 30.35675781 -11.03351563 29.71351562 -11.05078125 29.05078125 C-11.87849832 20.39063701 -15.88105419 15.87669373 -21.56640625 9.75 C-24 7 -24 7 -25 4 C-24 3 -24 3 -21.66796875 2.62890625 C-19 3 -19 3 -17.05078125 5.15234375 C-16.47714844 6.07144531 -15.90351563 6.99054687 -15.3125 7.9375 C-13.22179277 11.58326346 -13.22179277 11.58326346 -10 14 C-9.8453125 13.01 -9.8453125 13.01 -9.6875 12 C-8.8202682 8.21571578 -7.70768426 4.49707589 -6 1 C-4 0 -4 0 0 0 Z " fill="#121212" transform="translate(168,16)"/>
<path d="M0 0 C3.87164046 1.42974657 7.29494588 3.21832023 10.8125 5.375 C12.27623047 6.25285156 12.27623047 6.25285156 13.76953125 7.1484375 C14.50558594 7.75945312 15.24164063 8.37046875 16 9 C16 13 16 13 14.5 15.75 C12 18 12 18 8.1875 18.6875 C3.93389602 18.40020217 1.31266893 16.70821148 -1.7109375 13.78125 C-3 12 -3 12 -3.625 8.4375 C-2.9910219 4.95062042 -2.07068712 2.84719479 0 0 Z " fill="#F9F9F9" transform="translate(302,247)"/>
<path d="M0 0 C3.29208237 2.38242803 5.4756764 5.13495633 6.58203125 9.0703125 C6.82152006 11.99987323 6.57202428 14.28236953 4.7109375 16.6171875 C0.83121469 20 0.83121469 20 -2 20 C-3.80211266 17.76360773 -5.47564497 15.53217136 -7.125 13.1875 C-7.82689453 12.22360352 -7.82689453 12.22360352 -8.54296875 11.24023438 C-12 6.37720937 -12 6.37720937 -12 3 C-8.13404153 -0.16305693 -4.89519423 -0.85880601 0 0 Z " fill="#F8F8F8" transform="translate(96,49)"/>
<path d="M0 0 C3.96747902 1.73393527 7.27514474 4.31871573 10.6875 6.9375 C11.28111328 7.38029297 11.87472656 7.82308594 12.48632812 8.27929688 C16.88041693 11.6412508 16.88041693 11.6412508 18 15 C17.67 15.66 17.34 16.32 17 17 C13.54074837 15.7508258 10.85306797 14.32472205 8 12 C7.72148193 12.5887793 7.44296387 13.17755859 7.15600586 13.78417969 C5.35224998 17.24160066 2.95384114 20.1820995 0.5625 23.25 C0.07201172 23.8996875 -0.41847656 24.549375 -0.92382812 25.21875 C-2.21021614 26.87143743 -3.59920481 28.44309837 -5 30 C-5.99 30 -6.98 30 -8 30 C-8.66 29.01 -9.32 28.02 -10 27 C-9.32453125 26.13117188 -8.6490625 25.26234375 -7.953125 24.3671875 C-7.05197828 23.20320632 -6.15094253 22.03913923 -5.25 20.875 C-4.8065625 20.30523437 -4.363125 19.73546875 -3.90625 19.1484375 C-1.10681841 15.52564368 1.50346654 11.83812854 4 8 C2.02 6.35 0.04 4.7 -2 3 C-1.34 2.01 -0.68 1.02 0 0 Z " fill="#0E0E0E" transform="translate(271,44)"/>
<path d="M0 0 C1.32 0.33 2.64 0.66 4 1 C2.92348619 7.52990613 1.23284624 13.49332796 -1.1953125 19.65234375 C-2.16212192 22.05936416 -2.16212192 22.05936416 -2 25 C0.31 25.66 2.62 26.32 5 27 C4.67 28.32 4.34 29.64 4 31 C-1.06572295 30.41399092 -5.53638581 29.32728431 -10.375 27.625 C-11.59960938 27.20476562 -12.82421875 26.78453125 -14.0859375 26.3515625 C-15.04757813 25.90554688 -16.00921875 25.45953125 -17 25 C-17.33 24.01 -17.66 23.02 -18 22 C-17.67 21.34 -17.34 20.68 -17 20 C-14.03 20.99 -11.06 21.98 -8 23 C-7.76216797 22.01773437 -7.76216797 22.01773437 -7.51953125 21.015625 C-5.64909649 13.69922827 -3.0479313 6.90302226 0 0 Z " fill="#0E0E0E" transform="translate(134,307)"/>
<path d="M0 0 C12.66970387 0.96355353 12.66970387 0.96355353 18 2 C17.37514309 11.78224261 15.68656475 21.35794117 14 31 C12.35 31 10.7 31 9 31 C8.53887614 22.39235455 10.27151563 14.38520694 12 6 C8.37 5.67 4.74 5.34 1 5 C0.67 3.35 0.34 1.7 0 0 Z " fill="#141414" transform="translate(148,312)"/>
<path d="M0 0 C1.32 0.66 2.64 1.32 4 2 C2.51991304 7.00113594 0.3681664 11.32915597 -2.125 15.875 C-2.49753906 16.56335938 -2.87007812 17.25171875 -3.25390625 17.9609375 C-4.16499526 19.64294798 -5.08190315 21.32180436 -6 23 C-4.70903219 23.81360995 -3.41720125 24.62585046 -2.125 25.4375 C-1.04605469 26.11619141 -1.04605469 26.11619141 0.0546875 26.80859375 C1.9777547 28.02461501 1.9777547 28.02461501 4 29 C3.67 30.32 3.34 31.64 3 33 C-1.14298667 32.40165275 -4.18194377 30.99335715 -7.8125 28.9375 C-8.78832031 28.38964844 -9.76414063 27.84179688 -10.76953125 27.27734375 C-11.50558594 26.85582031 -12.24164063 26.43429688 -13 26 C-12.41358429 22.27112493 -11.3667105 19.4622737 -9.53125 16.171875 C-9.04269531 15.29015625 -8.55414063 14.4084375 -8.05078125 13.5 C-7.53902344 12.5925 -7.02726563 11.685 -6.5 10.75 C-5.98824219 9.82703125 -5.47648438 8.9040625 -4.94921875 7.953125 C-1.16689161 1.16689161 -1.16689161 1.16689161 0 0 Z " fill="#0C0C0C" transform="translate(250,32)"/>
<path d="M0 0 C4.42393733 4.12791178 7.88374151 8.69517475 11.375 13.625 C11.93316406 14.388125 12.49132812 15.15125 13.06640625 15.9375 C13.58847656 16.67226563 14.11054688 17.40703125 14.6484375 18.1640625 C15.12458496 18.82873535 15.60073242 19.4934082 16.09130859 20.17822266 C17 22 17 22 16 25 C15.01 25.33 14.02 25.66 13 26 C8.73781018 20.47431518 8.73781018 20.47431518 7.00073242 18.20336914 C5.01620175 15.60924602 3.02512418 13.03091093 0.96484375 10.49609375 C0.41957031 9.81675781 -0.12570312 9.13742187 -0.6875 8.4375 C-1.16574219 7.85871094 -1.64398438 7.27992188 -2.13671875 6.68359375 C-3 5 -3 5 -2.76953125 2.84765625 C-2 1 -2 1 0 0 Z " fill="#0D0D0D" transform="translate(262,287)"/>
<path d="M0 0 C2.9375 1 2.9375 1 4.3125 3.3125 C4.9375 6 4.9375 6 4.9375 10 C1.6375 10.66 -1.6625 11.32 -5.0625 12 C-6.41837189 3.49498544 -6.41837189 3.49498544 -4.7734375 1.20703125 C-3.0625 0 -3.0625 0 0 0 Z " fill="#F0F0F0" transform="translate(31.0625,211)"/>
<path d="M0 0 C5.875 0.875 5.875 0.875 7 2 C7.30867281 5.47256915 7.38701339 7.3872288 5.5 10.375 C5.005 10.91125 4.51 11.4475 4 12 C1.0280615 10.87548273 -1.33440687 9.77706209 -4 8 C-3.40072174 4.64404172 -2.15377564 2.62198774 0 0 Z " fill="#F1F1F1" transform="translate(49,89)"/>
<path d="M0 0 C0.36122881 1.31057393 0.71380311 2.62353624 1.0625 3.9375 C1.25972656 4.66839844 1.45695313 5.39929688 1.66015625 6.15234375 C1.77230469 6.76207031 1.88445312 7.37179687 2 8 C0.41105928 9.58894072 -1.24801424 9.16998411 -3.4375 9.1875 C-4.64212891 9.20876953 -4.64212891 9.20876953 -5.87109375 9.23046875 C-8 9 -8 9 -10 7 C-9.625 4.375 -9.625 4.375 -9 2 C-3.375 0 -3.375 0 0 0 Z " fill="#F2F2F2" transform="translate(216,315)"/>
<path d="M0 0 C1 1 1 1 1.0625 3.5625 C1.041875 4.366875 1.02125 5.17125 1 6 C-3.455 7.485 -3.455 7.485 -8 9 C-10 5 -10 5 -10 1 C-6.23355012 -0.82941851 -4.03077875 -1.23162684 0 0 Z " fill="#F2F2F2" transform="translate(136,41)"/>
<path d="M0 0 C6.625 -0.25 6.625 -0.25 10 2 C10.25 4.5625 10.25 4.5625 10 7 C9 8 9 8 6.71484375 8.09765625 C5.34005859 8.08025391 5.34005859 8.08025391 3.9375 8.0625 C3.01839844 8.05347656 2.09929687 8.04445313 1.15234375 8.03515625 C0.44207031 8.02355469 -0.26820313 8.01195312 -1 8 C-0.67 5.36 -0.34 2.72 0 0 Z " fill="#F6F6F6" transform="translate(191,33)"/>
<path d="M0 0 C2.97 0.33 5.94 0.66 9 1 C9.625 3.375 9.625 3.375 10 6 C8 8 8 8 6.0546875 8.1953125 C4.03645833 8.13020833 2.01822917 8.06510417 0 8 C0 5.36 0 2.72 0 0 Z " fill="#F1F1F1" transform="translate(192,21)"/>
<path d="M0 0 C0.33 2.64 0.66 5.28 1 8 C-5.0546875 8.9765625 -5.0546875 8.9765625 -7 9 C-7.66 8.34 -8.32 7.68 -9 7 C-8.9375 4.5 -8.9375 4.5 -8 2 C-5.11090151 0.40339294 -3.30941204 0 0 0 Z " fill="#F4F4F4" transform="translate(219,327)"/>
<path d="M0 0 C0.33 1.65 0.66 3.3 1 5 C-1.62198774 7.15377564 -3.64404172 8.40072174 -7 9 C-8.76462683 5.91190305 -9 4.76687864 -9 1 C-5.57367167 -0.61798838 -3.61944899 -1.34053666 0 0 Z " fill="#F2F2F2" transform="translate(131,30)"/>
<path d="M0 0 C3.81684226 1.55500981 6.19195732 4.03595495 9 7 C5.37 7 1.74 7 -2 7 C-1.34 4.69 -0.68 2.38 0 0 Z " fill="#F1F1F1" transform="translate(319,225)"/>
<path d="M0 0 C1.65 0 3.3 0 5 0 C5 1.65 5 3.3 5 5 C3.125 5.625 3.125 5.625 1 6 C0.34 5.34 -0.32 4.68 -1 4 C-0.625 1.875 -0.625 1.875 0 0 Z " fill="#1E1E1E" transform="translate(276,81)"/>
<path d="M0 0 C2.0625 0.4375 2.0625 0.4375 4 1 C4 2.32 4 3.64 4 5 C2.68 5.33 1.36 5.66 0 6 C-0.38218767 4.34385343 -0.71395102 2.67542976 -1 1 C-0.67 0.67 -0.34 0.34 0 0 Z " fill="#0F0F0F" transform="translate(116,300)"/>
</svg>
